<svg xmlns="http://www.w3.org/2000/svg" viewBox="0 0 1024 1024">
  <polygon points="512.0,510.1 512.0,703.9 722.7,633.3" fill="#ba6b9a" stroke="#ba6b9a" stroke-width="1.5" stroke-linejoin="round"/>
  <polygon points="722.7,633.3 787.5,514.8 720.3,390.3" fill="#e47558" stroke="#e47558" stroke-width="1.5" stroke-linejoin="round"/>
  <polygon points="720.3,390.3 512.0,510.1 722.7,633.3" fill="#ee755b" stroke="#ee755b" stroke-width="1.5" stroke-linejoin="round"/>
  <polygon points="303.7,390.3 236.5,514.8 301.3,633.3" fill="#82c79b" stroke="#82c79b" stroke-width="1.5" stroke-linejoin="round"/>
  <polygon points="366.6,731.9 301.3,633.3 126.6,731.1" fill="#40628f" stroke="#40628f" stroke-width="1.5" stroke-linejoin="round"/>
  <polygon points="512.0,71.5 512.0,323.1 720.3,390.3" fill="#f5b563" stroke="#f5b563" stroke-width="1.5" stroke-linejoin="round"/>
  <polygon points="897.4,731.1 657.4,731.9 512.0,952.1" fill="#7c3d5d" stroke="#7c3d5d" stroke-width="1.5" stroke-linejoin="round"/>
  <polygon points="122.3,295.9 126.6,731.1 236.5,514.8" fill="#409d85" stroke="#409d85" stroke-width="1.5" stroke-linejoin="round"/>
  <polygon points="901.7,295.9 720.3,390.3 787.5,514.8" fill="#d2644d" stroke="#d2644d" stroke-width="1.5" stroke-linejoin="round"/>
  <polygon points="512.0,71.5 122.3,295.9 303.7,390.3" fill="#bfd363" stroke="#bfd363" stroke-width="1.5" stroke-linejoin="round"/>
  <polygon points="512.0,71.5 303.7,390.3 512.0,323.1" fill="#f4df72" stroke="#f4df72" stroke-width="1.5" stroke-linejoin="round"/>
  <polygon points="722.7,633.3 512.0,703.9 512.0,952.1" fill="#905897" stroke="#905897" stroke-width="1.5" stroke-linejoin="round"/>
  <polygon points="512.0,71.5 720.3,390.3 901.7,295.9" fill="#ed8f53" stroke="#ed8f53" stroke-width="1.5" stroke-linejoin="round"/>
  <polygon points="512.0,510.1 301.3,633.3 512.0,703.9" fill="#65a6cc" stroke="#65a6cc" stroke-width="1.5" stroke-linejoin="round"/>
  <polygon points="301.3,633.3 512.0,952.1 512.0,703.9" fill="#6875a7" stroke="#6875a7" stroke-width="1.5" stroke-linejoin="round"/>
  <polygon points="512.0,510.1 512.0,323.1 303.7,390.3" fill="#f4cd3b" stroke="#f4cd3b" stroke-width="1.5" stroke-linejoin="round"/>
  <polygon points="512.0,510.1 720.3,390.3 512.0,323.1" fill="#ef983f" stroke="#ef983f" stroke-width="1.5" stroke-linejoin="round"/>
  <polygon points="126.6,731.1 512.0,952.1 366.6,731.9" fill="#425778" stroke="#425778" stroke-width="1.5" stroke-linejoin="round"/>
  <polygon points="236.5,514.8 126.6,731.1 301.3,633.3" fill="#60ada6" stroke="#60ada6" stroke-width="1.5" stroke-linejoin="round"/>
  <polygon points="122.3,295.9 236.5,514.8 303.7,390.3" fill="#6bb17d" stroke="#6bb17d" stroke-width="1.5" stroke-linejoin="round"/>
  <polygon points="657.4,731.9 897.4,731.1 722.7,633.3" fill="#9f4258" stroke="#9f4258" stroke-width="1.5" stroke-linejoin="round"/>
  <polygon points="787.5,514.8 722.7,633.3 897.4,731.1" fill="#e26e70" stroke="#e26e70" stroke-width="1.5" stroke-linejoin="round"/>
  <polygon points="901.7,295.9 787.5,514.8 897.4,731.1" fill="#d04453" stroke="#d04453" stroke-width="1.5" stroke-linejoin="round"/>
  <polygon points="303.7,390.3 301.3,633.3 512.0,510.1" fill="#7ac386" stroke="#7ac386" stroke-width="1.5" stroke-linejoin="round"/>
</svg>
